HIERARCHY
ROOT Hips
{
  OFFSET 0.0 0.0 0.0
  CHANNELS 6 XPOSITION YPOSITION ZPOSITION ZROTATION XROTATION YROTATION 
  JOINT LeftUpLeg
  {
    OFFSET 0.08945800000000001 -0.0866707 0.0010165200000000001
    CHANNELS 3 ZROTATION XROTATION YROTATION 
    JOINT LeftLeg
    {
      OFFSET 0.0 -0.444227 0.013727000000000001
      CHANNELS 3 ZROTATION XROTATION YROTATION 
      JOINT LeftFoot
      {
        OFFSET -0.0025354900000000005 -0.42092399999999996 -0.014605900000000002
        CHANNELS 3 ZROTATION XROTATION YROTATION 
        End Site
        {
          OFFSET -0.0004 -0.0441509 0.08499100000000001
        }
      }
    }
  }
  JOINT Spine
  {
    OFFSET 0.0 0.118905 0.0
    CHANNELS 3 ZROTATION XROTATION YROTATION 
    JOINT Spine1
    {
      OFFSET 0.0 0.25657399999999997 0.00127663
      CHANNELS 3 ZROTATION XROTATION YROTATION 
      End Site
      {
        OFFSET -0.0029 0.21508359999999999 0.02525291
      }
      JOINT RightArm
      {
        OFFSET -0.162727 -0.05365632 0.0010212299999999997
        CHANNELS 3 ZROTATION XROTATION YROTATION 
        JOINT RightForeArm
        {
          OFFSET -0.26364 0.00099144 -0.0142434
          CHANNELS 3 ZROTATION XROTATION YROTATION 
          End Site
          {
            OFFSET -0.220324 0.0008536199999999999 0.010221599999999999
          }
        }
      }
      JOINT LeftArm
      {
        OFFSET 0.162727 -0.053656319900000006 0.0010212299999999997
        CHANNELS 3 ZROTATION XROTATION YROTATION 
        JOINT LeftForeArm
        {
          OFFSET 0.26259699999999997 0.00099144 -0.0142434
          CHANNELS 3 ZROTATION XROTATION YROTATION 
          End Site
          {
            OFFSET 0.220902 0.0008536199999999999 0.010221599999999999
          }
        }
      }
    }
  }
  JOINT RightUpLeg
  {
    OFFSET -0.08945800000000001 -0.0866707 0.0010165200000000001
    CHANNELS 3 ZROTATION XROTATION YROTATION 
    JOINT RightLeg
    {
      OFFSET 0.0 -0.444227 0.013727000000000001
      CHANNELS 3 ZROTATION XROTATION YROTATION 
      JOINT RightFoot
      {
        OFFSET 0.0025354900000000005 -0.42092399999999996 -0.014605900000000002
        CHANNELS 3 ZROTATION XROTATION YROTATION 
        End Site
        {
          OFFSET 0.0004 -0.0441509 0.08499100000000001
        }
      }
    }
  }
}
MOTION
Frames: 12
Frame Time: 0.033333
1.7879800000000001 0.9898006134699782 0.08366770000000001 -3.233000034186543 0.5686570043029319 -92.37970188301314 -1.7674500792366095 2.670819970207487 1.6987699658111926 0.14395900334207284 8.547880147207055 19.02320040460398 -1.3530842735199153 -8.717594980156239 0.008845279236861651 1.4330400687696712 5.250510275848195 0.8362219810753652 -1.6729699934385271 -1.216189993636523 1.2500099954769586 78.58504885409435 -11.917306379875432 5.546674962222764 6.756289938287798 40.744598738929795 10.074800525788316 -73.30477987091923 3.503110750528687 1.6975793784614945 -2.235609921247795 27.81970029137314 -19.618499202094778 0.10669199712660232 1.788839990561268 -3.4000700898230516 0.044162999322257444 9.74554015779045 -11.167400274105868 2.6971546183261177 -8.495500280235872 -0.0868850621833736 
1.78815 0.9898006134699782 0.0838016 -3.24484016711276 0.593960027052626 -92.33809920077859 -1.7449500487284122 2.6419600730866564 1.7129799609359924 0.14767499977653 8.606379863674567 18.96710064585608 -1.3355644114120093 -8.735995509780253 0.00884571446131804 1.495500014295322 5.297589916023447 0.8225899907090776 -1.7353999501648534 -1.21922003630707 1.2467898814484148 78.6483578775112 -11.814049287550471 5.53260093055113 6.6963499056790585 40.31360014192365 10.234900159933414 -73.37383308342807 4.178407498343028 1.4043480448920345 -1.9698801309279796 27.130300270139784 -20.171100779536538 0.12019800251921496 1.8162599984276957 -3.390380185824919 0.061373698653674334 9.702299937702392 -11.194899469477985 2.710693333921552 -8.466899716860091 -0.08687852547889448 
1.78835 0.9898006134699782 0.0840564 -3.2891399202958165 0.6099460314441879 -92.28259708358307 -1.7498599942462993 2.650669844938892 1.7054900181808388 0.16610199638357814 8.65386931520002 18.917798632879634 -1.2996645102475992 -8.752994996850768 0.008846115501478048 1.5750800424190217 5.404709907210872 0.7891760115982875 -1.828579952143106 -1.2576900095901091 1.2305100188399838 78.75561916823709 -11.662180031355238 5.519407993282427 6.61683967355094 39.7788987827492 10.442800019211202 -73.49565633746441 5.095361248190886 0.8957207194306983 -1.451770048299433 26.29349964397567 -21.143299660712398 0.12365800026192889 1.870459897369274 -3.387629967466931 0.061955598754447685 9.673399699776775 -11.230900542819477 2.7360455020167587 -8.447300489036738 -0.086356196100267 
1.78857 0.9898006134699782 0.0844159 -3.328079895971117 0.5983870034909992 -92.29129874458566 -1.7961502139638856 2.676170142761723 1.6717199620987089 0.1783249934292862 8.657600306034139 18.963299645582968 -1.2907443899132685 -8.746795746405335 0.008845968759132598 1.6644600046195144 5.594040189682687 0.7518989735424736 -1.9543201062250444 -1.4371100077413526 1.216840035546438 78.84294996696487 -11.47762917375514 5.505919650332121 6.547910258220818 39.59140325984318 10.579900698873574 -73.58480396651142 5.86076249186627 0.5381844888468903 -0.8951180085972975 25.693899534855053 -22.22110180419312 0.10140899921604953 1.8746000592233596 -3.387040009877371 0.025742399347449565 9.719009995506827 -11.227599853903067 2.7809281691567933 -8.459300277634805 -0.08457248953047553 
1.78892 0.9898006134699782 0.0848835 -3.3252299995399293 0.5905029908372474 -92.3900974309299 -1.836460069454597 2.643409994181403 1.6506699594069645 0.16543900112662413 8.678890005677069 19.08960008862026 -1.3183643942563306 -8.740495750669645 0.008845822016787148 1.7726999333874105 5.780129974280154 0.7524389853737278 -2.06528997622683 -1.6262200166124343 1.2382300535928021 78.88042721494072 -11.34735612194184 5.5252392672863255 6.492200247142432 39.658899189221245 10.64830077454302 -73.62555287509971 6.399720766440929 0.2775053832944612 -0.5050760006188997 25.374299615664526 -23.122799472756107 0.07406709162793396 1.7972699381009447 -3.372069942763996 -0.016088899123675147 9.802340010928276 -11.159899872623548 2.804041742751528 -8.475200104248948 -0.0833578030855909 
1.78929 0.9898006134699782 0.0854003 -3.307649946389963 0.6122569832611794 -92.49220192883242 -1.8439899261277128 2.5813400097686774 1.6546299750216908 0.148552999249994 8.727070160082338 19.18880004857823 -1.3207244380579815 -8.754195402597398 0.00884615218706441 1.860740111293523 5.8518298850923625 0.7885430451612978 -2.0744900275954254 -1.6109200727064885 1.2782400210902676 78.86994287456476 -11.357274410390344 5.5985464069876025 6.4914800890718185 39.642100338957604 10.649299689709135 -73.65007325422006 6.721717228256486 -0.19233693974858224 -0.3535490009341073 25.332100999424895 -23.52100120891514 0.06301319751852863 1.7284800080402785 -3.357240107972017 -0.026135398693936447 9.830079970468637 -11.073000229587121 2.775387818522855 -8.458199763404787 -0.08233355485456667 
1.78942 0.9898006134699782 0.085883 -3.3232599168512036 0.6440300094238738 -92.49839691040962 -1.8433000770215415 2.5939400012400586 1.6614098982682806 0.1485720090538363 8.722420508804852 19.183399076492044 -1.2504543846598326 -8.765295313772315 0.008846413154985579 1.8978600549984264 5.839800214416678 0.7904179854493192 -2.0124499252603187 -1.4622000673271598 1.2720100347935697 78.8311200793224 -11.414308197507244 5.671563690535978 6.605049913269852 39.44529868330744 10.544099408565307 -73.67386963328839 6.850367256368261 -0.8351735470377682 -0.3677500314356216 25.482699840434506 -23.33710007305984 0.057625298841299265 1.7671000320416463 -3.373840028976087 -0.008617510103824246 9.76477994690873 -11.039499859255502 2.749254234097917 -8.409100094782504 -0.08145995098135957 
1.7892400000000002 0.9898006134699782 0.0863029 -3.363220152033775 0.6564019899708528 -92.43840052874023 -1.852260004552129 2.6854299582855563 1.6725900641659452 0.1394380050809062 8.643600125782905 19.111200561870422 -1.1545239508801803 -8.755395808344028 0.009397027120698438 1.916389931329848 5.840689846556072 0.7173430188189692 -2.00686987415183 -1.4120599687952136 1.1986300041672435 78.7919011331082 -11.375795322098481 5.6972370909655865 6.8127999352727215 39.275899746607365 10.336900497451092 -73.64314744240167 6.806986163628571 -1.2778043830872676 -0.46925598065126695 25.730099537456123 -22.91069990091241 0.042503300039530706 1.8739398787513954 -3.408500037362728 -0.00036509899401945015 9.671470171336246 -11.067600111274581 2.7869391625132276 -8.367399228578638 -0.08070562862468306 
1.7890199999999998 0.9898006134699782 0.08668870000000001 -3.3765601518130444 0.6604430073602673 -92.41939894246926 -1.8493300668416048 2.75760990333037 1.7095100113942143 0.0922194065746205 8.554309916536974 19.062100039474494 -1.0989309067913309 -8.736095401296865 0.011725490468834688 1.957270107616255 5.850300349605103 0.627120008503656 -2.067270090755899 -1.471959980764285 1.1179699523810356 78.76648599920658 -11.33653966361748 5.694757732296872 7.0001498897720555 39.33069835431838 10.112899320978647 -73.51555267851666 7.017207433450516 -1.3956778667926437 -0.6295829853905333 25.697900318161388 -22.654099939078783 0.033702101035973424 1.9417399649909386 -3.411429975073252 -0.022291299526955174 9.598240298149955 -11.093199660283789 2.8610202480248326 -8.342199245635875 -0.08003239475408062 
1.7889599999999999 0.9897906134699781 0.0870602 -3.3501700084074075 0.6678520550624386 -92.4702975121642 -1.838130050706665 2.7479300311725807 1.752210006207607 0.03305959968158274 8.52947961758304 19.077099134891842 -1.0737617664215398 -8.736595712653568 0.01341202775927548 1.97217998368757 5.8212498475177465 0.5997180366055054 -2.048529972664088 -1.4904999956577556 1.0862299565862807 78.73467780824183 -11.500634104653388 5.69491994928966 7.0721400836239905 39.61820150705173 9.955610309677008 -73.35432606315851 7.692375048000862 -1.4087808376633726 -0.8402170014095879 25.25640030530635 -22.60139990699026 0.030030600882720505 1.9150200515144373 -3.3827299470676815 -0.055399200785563936 9.589550589978407 -11.05599988874296 2.9216650707785523 -8.333199617630736 -0.07939994191529992 
1.78898 0.9897706134699782 0.08739770000000001 -3.3262799276814072 0.6599459510155902 -92.52819702575839 -1.859650055790671 2.7178799735888752 1.753820009861026 0.004167169949518186 8.539809424929038 19.13499864848604 -1.0307876035459946 -8.749395487158171 0.014886660765253938 1.8855699833606347 5.805110110509006 0.6294949933441164 -1.8766700334286965 -1.4727000957938792 1.0856499241153585 78.66709308640455 -11.807571706896361 5.6700512305216435 7.055590108378226 40.017101630053396 9.862049524652527 -73.26379873589916 8.341379622935474 -1.44444957961306 -1.068439981841042 24.84400031341015 -22.497300993850093 -0.005427579975223547 1.8475599806295138 -3.3889099876060738 -0.06688239963174168 9.65376973610216 -10.957599914691524 2.9623700100240664 -8.342399028669098 -0.07876863633485637 
1.78891 0.9897506134699781 0.0876737 -3.334900053300786 0.6272510093975028 -92.5496028386172 -1.918379864255849 2.7406699669716805 1.7171600367080402 0.0012255000425670096 8.517990385625431 19.194199313117124 -0.9821133276429566 -8.75219501094423 0.01648638078180485 1.7274800256571063 5.874239735759175 0.6477360273788404 -1.6611800197140272 -1.5367700449729491 1.0657700182058016 78.5830339482892 -12.035325218544083 5.613997148663818 7.051040348617351 40.383599335632525 9.77020994729889 -73.25922250915525 8.531585877168343 -1.3834208788836442 -1.277249963825733 24.774699506543907 -22.199899189462105 -0.08025109420965325 1.8170000067355843 -3.458009944222035 -0.049535099851977835 9.737429308151059 -10.852399633547696 2.979652309614903 -8.3706990637214 -0.07809862412574721 
